<?xml version="1.0"?>
<!-- Generated by SVGo -->
<svg width="2480" height="3508"
     xmlns="http://www.w3.org/2000/svg"
     xmlns:xlink="http://www.w3.org/1999/xlink">
<g transform="translate(124,175)">
<rect x="0" y="0" width="446" height="631" style="stroke:black;stroke-width:22;fill:#bbbbff;"/>
<text x="223" y="94" style="text-anchor:middle;font-size:44;font-weight:bold;">Chief</text>
<image x="44" y="44" width="356" height="504" xlink:href="chief.svg" />
</g>
<g transform="translate(570,175)">
<rect x="0" y="0" width="446" height="631" style="stroke:black;stroke-width:22;fill:#bbbbff;"/>
<text x="223" y="94" style="text-anchor:middle;font-size:44;font-weight:bold;">Chief</text>
<image x="44" y="44" width="356" height="504" xlink:href="chief.svg" />
</g>
<g transform="translate(1016,175)">
<rect x="0" y="0" width="446" height="631" style="stroke:black;stroke-width:22;fill:#bbbbff;"/>
<text x="223" y="94" style="text-anchor:middle;font-size:44;font-weight:bold;">Chief</text>
<image x="44" y="44" width="356" height="504" xlink:href="chief.svg" />
</g>
<g transform="translate(1462,175)">
<rect x="0" y="0" width="446" height="631" style="stroke:black;stroke-width:22;fill:#bbbbff;"/>
<text x="223" y="94" style="text-anchor:middle;font-size:44;font-weight:bold;">Chief</text>
<image x="44" y="44" width="356" height="504" xlink:href="chief.svg" />
</g>
<g transform="translate(1908,175)">
<rect x="0" y="0" width="446" height="631" style="stroke:black;stroke-width:22;fill:#bbbbff;"/>
<text x="223" y="94" style="text-anchor:middle;font-size:44;font-weight:bold;">Chief</text>
<image x="44" y="44" width="356" height="504" xlink:href="chief.svg" />
</g>
<g transform="translate(124,806)">
<rect x="0" y="0" width="446" height="631" style="stroke:black;stroke-width:22;fill:#bbbbff;"/>
<text x="223" y="94" style="text-anchor:middle;font-size:44;font-weight:bold;">Ash</text>
<image x="44" y="44" width="356" height="504" xlink:href="ash.svg" />
</g>
<g transform="translate(570,806)">
<rect x="0" y="0" width="446" height="631" style="stroke:black;stroke-width:22;fill:#bbbbff;"/>
<text x="223" y="94" style="text-anchor:middle;font-size:44;font-weight:bold;">Ash</text>
<image x="44" y="44" width="356" height="504" xlink:href="ash.svg" />
</g>
<g transform="translate(1016,806)">
<rect x="0" y="0" width="446" height="631" style="stroke:black;stroke-width:22;fill:#bbbbff;"/>
<text x="223" y="94" style="text-anchor:middle;font-size:44;font-weight:bold;">Ash</text>
<image x="44" y="44" width="356" height="504" xlink:href="ash.svg" />
</g>
<g transform="translate(1462,806)">
<rect x="0" y="0" width="446" height="631" style="stroke:black;stroke-width:22;fill:#bbbbff;"/>
<text x="223" y="94" style="text-anchor:middle;font-size:44;font-weight:bold;">Ash</text>
<image x="44" y="44" width="356" height="504" xlink:href="ash.svg" />
</g>
<g transform="translate(1908,806)">
<rect x="0" y="0" width="446" height="631" style="stroke:black;stroke-width:22;fill:#bbbbff;"/>
<text x="223" y="94" style="text-anchor:middle;font-size:44;font-weight:bold;">Ash</text>
<image x="44" y="44" width="356" height="504" xlink:href="ash.svg" />
</g>
<g transform="translate(124,1437)">
<rect x="0" y="0" width="446" height="631" style="stroke:black;stroke-width:22;fill:#bbbbff;"/>
<text x="223" y="94" style="text-anchor:middle;font-size:44;font-weight:bold;">Scruffy</text>
<image x="44" y="44" width="356" height="504" xlink:href="scruffy.svg" />
</g>
<g transform="translate(570,1437)">
<rect x="0" y="0" width="446" height="631" style="stroke:black;stroke-width:22;fill:#bbbbff;"/>
<text x="223" y="94" style="text-anchor:middle;font-size:44;font-weight:bold;">Scruffy</text>
<image x="44" y="44" width="356" height="504" xlink:href="scruffy.svg" />
</g>
<g transform="translate(1016,1437)">
<rect x="0" y="0" width="446" height="631" style="stroke:black;stroke-width:22;fill:#bbbbff;"/>
<text x="223" y="94" style="text-anchor:middle;font-size:44;font-weight:bold;">Scruffy</text>
<image x="44" y="44" width="356" height="504" xlink:href="scruffy.svg" />
</g>
<g transform="translate(1462,1437)">
<rect x="0" y="0" width="446" height="631" style="stroke:black;stroke-width:22;fill:#bbbbff;"/>
<text x="223" y="94" style="text-anchor:middle;font-size:44;font-weight:bold;">Scruffy</text>
<image x="44" y="44" width="356" height="504" xlink:href="scruffy.svg" />
</g>
<g transform="translate(1908,1437)">
<rect x="0" y="0" width="446" height="631" style="stroke:black;stroke-width:22;fill:#bbbbff;"/>
<text x="223" y="94" style="text-anchor:middle;font-size:44;font-weight:bold;">Scruffy</text>
<image x="44" y="44" width="356" height="504" xlink:href="scruffy.svg" />
</g>
<g transform="translate(124,2068)">
<rect x="0" y="0" width="446" height="631" style="stroke:black;stroke-width:22;fill:#bbbbff;"/>
<text x="223" y="94" style="text-anchor:middle;font-size:44;font-weight:bold;">Air</text>
<image x="44" y="44" width="356" height="504" xlink:href="air.svg" />
</g>
<g transform="translate(570,2068)">
<rect x="0" y="0" width="446" height="631" style="stroke:black;stroke-width:22;fill:#bbbbff;"/>
<text x="223" y="94" style="text-anchor:middle;font-size:44;font-weight:bold;">Air</text>
<image x="44" y="44" width="356" height="504" xlink:href="air.svg" />
</g>
<g transform="translate(1016,2068)">
<rect x="0" y="0" width="446" height="631" style="stroke:black;stroke-width:22;fill:#bbbbff;"/>
<text x="223" y="94" style="text-anchor:middle;font-size:44;font-weight:bold;">Air</text>
<image x="44" y="44" width="356" height="504" xlink:href="air.svg" />
</g>
<g transform="translate(1462,2068)">
<rect x="0" y="0" width="446" height="631" style="stroke:black;stroke-width:22;fill:#bbbbff;"/>
<text x="223" y="94" style="text-anchor:middle;font-size:44;font-weight:bold;">Air</text>
<image x="44" y="44" width="356" height="504" xlink:href="air.svg" />
</g>
<g transform="translate(1908,2068)">
<rect x="0" y="0" width="446" height="631" style="stroke:black;stroke-width:22;fill:#bbbbff;"/>
<text x="223" y="94" style="text-anchor:middle;font-size:44;font-weight:bold;">Air</text>
<image x="44" y="44" width="356" height="504" xlink:href="air.svg" />
</g>
<g transform="translate(124,2699)">
<rect x="0" y="0" width="446" height="631" style="stroke:black;stroke-width:22;fill:#bbbbff;"/>
<text x="223" y="94" style="text-anchor:middle;font-size:44;font-weight:bold;">Digger</text>
<image x="44" y="44" width="356" height="504" xlink:href="digger.svg" />
</g>
<g transform="translate(570,2699)">
<rect x="0" y="0" width="446" height="631" style="stroke:black;stroke-width:22;fill:#bbbbff;"/>
<text x="223" y="94" style="text-anchor:middle;font-size:44;font-weight:bold;">Digger</text>
<image x="44" y="44" width="356" height="504" xlink:href="digger.svg" />
</g>
<g transform="translate(1016,2699)">
<rect x="0" y="0" width="446" height="631" style="stroke:black;stroke-width:22;fill:#bbbbff;"/>
<text x="223" y="94" style="text-anchor:middle;font-size:44;font-weight:bold;">Digger</text>
<image x="44" y="44" width="356" height="504" xlink:href="digger.svg" />
</g>
<g transform="translate(1462,2699)">
<rect x="0" y="0" width="446" height="631" style="stroke:black;stroke-width:22;fill:#bbbbff;"/>
<text x="223" y="94" style="text-anchor:middle;font-size:44;font-weight:bold;">Digger</text>
<image x="44" y="44" width="356" height="504" xlink:href="digger.svg" />
</g>
<g transform="translate(1908,2699)">
<rect x="0" y="0" width="446" height="631" style="stroke:black;stroke-width:22;fill:#bbbbff;"/>
<text x="223" y="94" style="text-anchor:middle;font-size:44;font-weight:bold;">Digger</text>
<image x="44" y="44" width="356" height="504" xlink:href="digger.svg" />
</g>
</svg>
