<?xml version="1.0"?>
<!-- Generated by SVGo -->
<svg width="2480" height="3508"
     xmlns="http://www.w3.org/2000/svg"
     xmlns:xlink="http://www.w3.org/1999/xlink">
<g transform="translate(124,175)">
<rect x="0" y="0" width="446" height="631" style="stroke:black;stroke-width:22;fill:#bbbbff;"/>
<text x="223" y="94" style="text-anchor:middle;font-size:44;font-weight:bold;">Splasher</text>
<image x="44" y="44" width="356" height="504" xlink:href="splasher.svg" />
</g>
<g transform="translate(570,175)">
<rect x="0" y="0" width="446" height="631" style="stroke:black;stroke-width:22;fill:#bbbbff;"/>
<text x="223" y="94" style="text-anchor:middle;font-size:44;font-weight:bold;">Splasher</text>
<image x="44" y="44" width="356" height="504" xlink:href="splasher.svg" />
</g>
<g transform="translate(1016,175)">
<rect x="0" y="0" width="446" height="631" style="stroke:black;stroke-width:22;fill:#bbbbff;"/>
<text x="223" y="94" style="text-anchor:middle;font-size:44;font-weight:bold;">Splasher</text>
<image x="44" y="44" width="356" height="504" xlink:href="splasher.svg" />
</g>
<g transform="translate(1462,175)">
<rect x="0" y="0" width="446" height="631" style="stroke:black;stroke-width:22;fill:#bbbbff;"/>
<text x="223" y="94" style="text-anchor:middle;font-size:44;font-weight:bold;">Splasher</text>
<image x="44" y="44" width="356" height="504" xlink:href="splasher.svg" />
</g>
<g transform="translate(1908,175)">
<rect x="0" y="0" width="446" height="631" style="stroke:black;stroke-width:22;fill:#bbbbff;"/>
<text x="223" y="94" style="text-anchor:middle;font-size:44;font-weight:bold;">Splasher</text>
<image x="44" y="44" width="356" height="504" xlink:href="splasher.svg" />
</g>
<g transform="translate(124,806)">
<rect x="0" y="0" width="446" height="631" style="stroke:black;stroke-width:22;fill:#bbbbff;"/>
<text x="223" y="94" style="text-anchor:middle;font-size:44;font-weight:bold;">Ripley</text>
<image x="44" y="44" width="356" height="504" xlink:href="ripley.svg" />
</g>
<g transform="translate(570,806)">
<rect x="0" y="0" width="446" height="631" style="stroke:black;stroke-width:22;fill:#bbbbff;"/>
<text x="223" y="94" style="text-anchor:middle;font-size:44;font-weight:bold;">Ripley</text>
<image x="44" y="44" width="356" height="504" xlink:href="ripley.svg" />
</g>
<g transform="translate(1016,806)">
<rect x="0" y="0" width="446" height="631" style="stroke:black;stroke-width:22;fill:#bbbbff;"/>
<text x="223" y="94" style="text-anchor:middle;font-size:44;font-weight:bold;">Ripley</text>
<image x="44" y="44" width="356" height="504" xlink:href="ripley.svg" />
</g>
<g transform="translate(1462,806)">
<rect x="0" y="0" width="446" height="631" style="stroke:black;stroke-width:22;fill:#bbbbff;"/>
<text x="223" y="94" style="text-anchor:middle;font-size:44;font-weight:bold;">Ripley</text>
<image x="44" y="44" width="356" height="504" xlink:href="ripley.svg" />
</g>
<g transform="translate(1908,806)">
<rect x="0" y="0" width="446" height="631" style="stroke:black;stroke-width:22;fill:#bbbbff;"/>
<text x="223" y="94" style="text-anchor:middle;font-size:44;font-weight:bold;">Ripley</text>
<image x="44" y="44" width="356" height="504" xlink:href="ripley.svg" />
</g>
<g transform="translate(124,1437)">
<rect x="0" y="0" width="446" height="631" style="stroke:black;stroke-width:22;fill:#ffbbbb;"/>
<text x="223" y="94" style="text-anchor:middle;font-size:44;font-weight:bold;">Mayor Okway</text>
<image x="44" y="44" width="356" height="504" xlink:href="mayor okway.svg" />
<image x="139" y="504" width="55" height="78" xlink:href="chief.svg" />
<image x="250" y="504" width="55" height="78" xlink:href="marshy.svg" />
</g>
<g transform="translate(570,1437)">
<rect x="0" y="0" width="446" height="631" style="stroke:black;stroke-width:22;fill:#ffbbbb;"/>
<text x="223" y="94" style="text-anchor:middle;font-size:44;font-weight:bold;">Mayor Okway</text>
<image x="44" y="44" width="356" height="504" xlink:href="mayor okway.svg" />
<image x="83" y="504" width="55" height="78" xlink:href="marshy.svg" />
<image x="194" y="504" width="55" height="78" xlink:href="splasher.svg" />
<image x="306" y="504" width="55" height="78" xlink:href="air.svg" />
</g>
<g transform="translate(1016,1437)">
<rect x="0" y="0" width="446" height="631" style="stroke:black;stroke-width:22;fill:#ffbbbb;"/>
<text x="223" y="94" style="text-anchor:middle;font-size:44;font-weight:bold;">Mayor Okway</text>
<image x="44" y="44" width="356" height="504" xlink:href="mayor okway.svg" />
<image x="83" y="504" width="55" height="78" xlink:href="marshy.svg" />
<image x="194" y="504" width="55" height="78" xlink:href="digger.svg" />
<image x="306" y="504" width="55" height="78" xlink:href="scruffy.svg" />
</g>
<g transform="translate(1462,1437)">
<rect x="0" y="0" width="446" height="631" style="stroke:black;stroke-width:22;fill:#ffbbbb;"/>
<text x="223" y="94" style="text-anchor:middle;font-size:44;font-weight:bold;">Turbot</text>
<image x="44" y="44" width="356" height="504" xlink:href="turbot.svg" />
<image x="83" y="504" width="55" height="78" xlink:href="splasher.svg" />
<image x="194" y="504" width="55" height="78" xlink:href="air.svg" />
<image x="306" y="504" width="55" height="78" xlink:href="digger.svg" />
</g>
<g transform="translate(1908,1437)">
<rect x="0" y="0" width="446" height="631" style="stroke:black;stroke-width:22;fill:#ffbbbb;"/>
<text x="223" y="94" style="text-anchor:middle;font-size:44;font-weight:bold;">Turbot</text>
<image x="44" y="44" width="356" height="504" xlink:href="turbot.svg" />
<image x="139" y="504" width="55" height="78" xlink:href="splasher.svg" />
<image x="250" y="504" width="55" height="78" xlink:href="ash.svg" />
</g>
<g transform="translate(124,2068)">
<rect x="0" y="0" width="446" height="631" style="stroke:black;stroke-width:22;fill:#ffbbbb;"/>
<text x="223" y="94" style="text-anchor:middle;font-size:44;font-weight:bold;">Turbot</text>
<image x="44" y="44" width="356" height="504" xlink:href="turbot.svg" />
<image x="139" y="504" width="55" height="78" xlink:href="splasher.svg" />
<image x="250" y="504" width="55" height="78" xlink:href="scruffy.svg" />
</g>
<g transform="translate(570,2068)">
<rect x="0" y="0" width="446" height="631" style="stroke:black;stroke-width:22;fill:#ffbbbb;"/>
<text x="223" y="94" style="text-anchor:middle;font-size:44;font-weight:bold;">Farmer Niwo</text>
<image x="44" y="44" width="356" height="504" xlink:href="farmer niwo.svg" />
<image x="139" y="504" width="55" height="78" xlink:href="digger.svg" />
<image x="250" y="504" width="55" height="78" xlink:href="scruffy.svg" />
</g>
<g transform="translate(1016,2068)">
<rect x="0" y="0" width="446" height="631" style="stroke:black;stroke-width:22;fill:#ffbbbb;"/>
<text x="223" y="94" style="text-anchor:middle;font-size:44;font-weight:bold;">Farmer Niwo</text>
<image x="44" y="44" width="356" height="504" xlink:href="farmer niwo.svg" />
<image x="83" y="504" width="55" height="78" xlink:href="digger.svg" />
<image x="194" y="504" width="55" height="78" xlink:href="air.svg" />
<image x="306" y="504" width="55" height="78" xlink:href="chief.svg" />
</g>
<g transform="translate(1462,2068)">
<rect x="0" y="0" width="446" height="631" style="stroke:black;stroke-width:22;fill:#ffbbbb;"/>
<text x="223" y="94" style="text-anchor:middle;font-size:44;font-weight:bold;">Farmer Niwo</text>
<image x="44" y="44" width="356" height="504" xlink:href="farmer niwo.svg" />
<image x="139" y="504" width="55" height="78" xlink:href="digger.svg" />
<image x="250" y="504" width="55" height="78" xlink:href="ash.svg" />
</g>
<g transform="translate(1908,2068)">
</g>
<g transform="translate(124,2699)">
</g>
<g transform="translate(570,2699)">
</g>
<g transform="translate(1016,2699)">
</g>
<g transform="translate(1462,2699)">
</g>
<g transform="translate(1908,2699)">
</g>
</svg>
